<svg width="32" height="32" viewBox="0 0 32 32" fill="none" xmlns="http://www.w3.org/2000/svg">
<mask id="mask0_270_188" style="mask-type:alpha" maskUnits="userSpaceOnUse" x="0" y="0" width="32" height="32">
<rect width="32" height="32" fill="#D9D9D9"/>
</mask>
<g mask="url(#mask0_270_188)">
<path d="M7.79984 22.8003C8.93317 21.9337 10.1998 21.2503 11.5998 20.7503C12.9998 20.2503 14.4665 20.0003 15.9998 20.0003C17.5332 20.0003 18.9998 20.2503 20.3998 20.7503C21.7998 21.2503 23.0665 21.9337 24.1998 22.8003C24.9776 21.8892 25.5832 20.8559 26.0165 19.7003C26.4498 18.5448 26.6665 17.3114 26.6665 16.0003C26.6665 13.0448 25.6276 10.5281 23.5498 8.45033C21.4721 6.37255 18.9554 5.33366 15.9998 5.33366C13.0443 5.33366 10.5276 6.37255 8.44984 8.45033C6.37206 10.5281 5.33317 13.0448 5.33317 16.0003C5.33317 17.3114 5.54984 18.5448 5.98317 19.7003C6.4165 20.8559 7.02206 21.8892 7.79984 22.8003ZM15.9998 17.3337C14.6887 17.3337 13.5832 16.8837 12.6832 15.9837C11.7832 15.0837 11.3332 13.9781 11.3332 12.667C11.3332 11.3559 11.7832 10.2503 12.6832 9.35033C13.5832 8.45033 14.6887 8.00033 15.9998 8.00033C17.3109 8.00033 18.4165 8.45033 19.3165 9.35033C20.2165 10.2503 20.6665 11.3559 20.6665 12.667C20.6665 13.9781 20.2165 15.0837 19.3165 15.9837C18.4165 16.8837 17.3109 17.3337 15.9998 17.3337ZM15.9998 29.3337C14.1554 29.3337 12.4221 28.9837 10.7998 28.2837C9.17761 27.5837 7.7665 26.6337 6.5665 25.4337C5.3665 24.2337 4.4165 22.8225 3.7165 21.2003C3.0165 19.5781 2.6665 17.8448 2.6665 16.0003C2.6665 14.1559 3.0165 12.4225 3.7165 10.8003C4.4165 9.1781 5.3665 7.76699 6.5665 6.56699C7.7665 5.36699 9.17761 4.41699 10.7998 3.71699C12.4221 3.01699 14.1554 2.66699 15.9998 2.66699C17.8443 2.66699 19.5776 3.01699 21.1998 3.71699C22.8221 4.41699 24.2332 5.36699 25.4332 6.56699C26.6332 7.76699 27.5832 9.1781 28.2832 10.8003C28.9832 12.4225 29.3332 14.1559 29.3332 16.0003C29.3332 17.8448 28.9832 19.5781 28.2832 21.2003C27.5832 22.8225 26.6332 24.2337 25.4332 25.4337C24.2332 26.6337 22.8221 27.5837 21.1998 28.2837C19.5776 28.9837 17.8443 29.3337 15.9998 29.3337ZM15.9998 26.667C17.1776 26.667 18.2887 26.4948 19.3332 26.1503C20.3776 25.8059 21.3332 25.3114 22.1998 24.667C21.3332 24.0225 20.3776 23.5281 19.3332 23.1837C18.2887 22.8392 17.1776 22.667 15.9998 22.667C14.8221 22.667 13.7109 22.8392 12.6665 23.1837C11.6221 23.5281 10.6665 24.0225 9.79984 24.667C10.6665 25.3114 11.6221 25.8059 12.6665 26.1503C13.7109 26.4948 14.8221 26.667 15.9998 26.667ZM15.9998 14.667C16.5776 14.667 17.0554 14.4781 17.4332 14.1003C17.8109 13.7225 17.9998 13.2448 17.9998 12.667C17.9998 12.0892 17.8109 11.6114 17.4332 11.2337C17.0554 10.8559 16.5776 10.667 15.9998 10.667C15.4221 10.667 14.9443 10.8559 14.5665 11.2337C14.1887 11.6114 13.9998 12.0892 13.9998 12.667C13.9998 13.2448 14.1887 13.7225 14.5665 14.1003C14.9443 14.4781 15.4221 14.667 15.9998 14.667Z" fill="#1C1B1F"/>
</g>
</svg>
