<svg width="32" height="32" viewBox="0 0 32 32" fill="none" xmlns="http://www.w3.org/2000/svg">
<g opacity="0.4">
<mask id="mask0_108_13507" style="mask-type:alpha" maskUnits="userSpaceOnUse" x="0" y="0" width="32" height="32">
<rect width="32" height="32" fill="#D9D9D9"/>
</mask>
<g mask="url(#mask0_108_13507)">
<path d="M11.2001 22.667L16.0001 17.867L20.8001 22.667L22.6667 20.8003L17.8667 16.0003L22.6667 11.2003L20.8001 9.33366L16.0001 14.1337L11.2001 9.33366L9.33342 11.2003L14.1334 16.0003L9.33342 20.8003L11.2001 22.667ZM16.0001 29.3337C14.1556 29.3337 12.4223 28.9837 10.8001 28.2837C9.17786 27.5837 7.76675 26.6337 6.56675 25.4337C5.36675 24.2337 4.41675 22.8225 3.71675 21.2003C3.01675 19.5781 2.66675 17.8448 2.66675 16.0003C2.66675 14.1559 3.01675 12.4225 3.71675 10.8003C4.41675 9.1781 5.36675 7.76699 6.56675 6.56699C7.76675 5.36699 9.17786 4.41699 10.8001 3.71699C12.4223 3.01699 14.1556 2.66699 16.0001 2.66699C17.8445 2.66699 19.5779 3.01699 21.2001 3.71699C22.8223 4.41699 24.2334 5.36699 25.4334 6.56699C26.6334 7.76699 27.5834 9.1781 28.2834 10.8003C28.9834 12.4225 29.3334 14.1559 29.3334 16.0003C29.3334 17.8448 28.9834 19.5781 28.2834 21.2003C27.5834 22.8225 26.6334 24.2337 25.4334 25.4337C24.2334 26.6337 22.8223 27.5837 21.2001 28.2837C19.5779 28.9837 17.8445 29.3337 16.0001 29.3337Z" fill="#1C1B1F"/>
</g>
</g>
</svg>
