<svg width="24" height="24" viewBox="0 0 24 24" fill="none" xmlns="http://www.w3.org/2000/svg">
<path d="M5.70005 4.19922L9.07503 4.19922C9.57208 4.19922 9.97503 4.60216 9.97503 5.09922C9.97503 5.59628 9.57208 5.99922 9.07503 5.99922H6.30005V17.9992H18.075V14.9992C18.075 14.5022 18.478 14.0992 18.975 14.0992C19.4721 14.0992 19.875 14.5022 19.875 14.9992V18.5992C19.875 19.262 19.3378 19.7992 18.675 19.7992H5.70005C5.03731 19.7992 4.50005 19.262 4.50005 18.5992V5.39922C4.50005 4.73648 5.03731 4.19922 5.70005 4.19922Z" fill="black"/>
<path d="M19.8749 11.1507C19.8749 11.6852 19.2286 11.9529 18.8506 11.575L16.4813 9.20566L11.6046 14.0824C11.136 14.551 10.3762 14.551 9.90755 14.0824C9.43892 13.6137 9.43892 12.854 9.90755 12.3853L14.7843 7.5086L12.4992 5.22348C12.1212 4.8455 12.3889 4.19922 12.9234 4.19922H19.2749C19.6063 4.19922 19.8749 4.46785 19.8749 4.79922V11.1507Z" fill="black"/>
</svg>
