<svg width="72" height="72" viewBox="0 0 72 72" fill="none" xmlns="http://www.w3.org/2000/svg">
<mask id="mask0_270_457" style="mask-type:alpha" maskUnits="userSpaceOnUse" x="0" y="0" width="72" height="72">
<rect width="72" height="72" fill="#D9D9D9"/>
</mask>
<g mask="url(#mask0_270_457)">
<path d="M17.5495 51.298C20.0995 49.348 22.9495 47.8105 26.0995 46.6855C29.2495 45.5605 32.5495 44.998 35.9995 44.998C39.4495 44.998 42.7495 45.5605 45.8995 46.6855C49.0495 47.8105 51.8995 49.348 54.4495 51.298C56.1995 49.248 57.562 46.923 58.537 44.323C59.512 41.723 59.9995 38.948 59.9995 35.998C59.9995 29.348 57.662 23.6855 52.987 19.0105C48.312 14.3355 42.6495 11.998 35.9995 11.998C29.3495 11.998 23.687 14.3355 19.012 19.0105C14.337 23.6855 11.9995 29.348 11.9995 35.998C11.9995 38.948 12.487 41.723 13.462 44.323C14.437 46.923 15.7995 49.248 17.5495 51.298ZM35.9995 38.998C33.0495 38.998 30.562 37.9855 28.537 35.9605C26.512 33.9355 25.4995 31.448 25.4995 28.498C25.4995 25.548 26.512 23.0605 28.537 21.0355C30.562 19.0105 33.0495 17.998 35.9995 17.998C38.9495 17.998 41.437 19.0105 43.462 21.0355C45.487 23.0605 46.4995 25.548 46.4995 28.498C46.4995 31.448 45.487 33.9355 43.462 35.9605C41.437 37.9855 38.9495 38.998 35.9995 38.998ZM35.9995 65.998C31.8495 65.998 27.9495 65.2105 24.2995 63.6355C20.6495 62.0605 17.4745 59.923 14.7745 57.223C12.0745 54.523 9.93701 51.348 8.36201 47.698C6.78701 44.048 5.99951 40.148 5.99951 35.998C5.99951 31.848 6.78701 27.948 8.36201 24.298C9.93701 20.648 12.0745 17.473 14.7745 14.773C17.4745 12.073 20.6495 9.93555 24.2995 8.36055C27.9495 6.78555 31.8495 5.99805 35.9995 5.99805C40.1495 5.99805 44.0495 6.78555 47.6995 8.36055C51.3495 9.93555 54.5245 12.073 57.2245 14.773C59.9245 17.473 62.062 20.648 63.637 24.298C65.212 27.948 65.9995 31.848 65.9995 35.998C65.9995 40.148 65.212 44.048 63.637 47.698C62.062 51.348 59.9245 54.523 57.2245 57.223C54.5245 59.923 51.3495 62.0605 47.6995 63.6355C44.0495 65.2105 40.1495 65.998 35.9995 65.998ZM35.9995 59.998C38.6495 59.998 41.1495 59.6105 43.4995 58.8355C45.8495 58.0606 47.9995 56.948 49.9495 55.498C47.9995 54.048 45.8495 52.9355 43.4995 52.1605C41.1495 51.3855 38.6495 50.998 35.9995 50.998C33.3495 50.998 30.8495 51.3855 28.4995 52.1605C26.1495 52.9355 23.9995 54.048 22.0495 55.498C23.9995 56.948 26.1495 58.0606 28.4995 58.8355C30.8495 59.6105 33.3495 59.998 35.9995 59.998ZM35.9995 32.998C37.2995 32.998 38.3745 32.573 39.2245 31.723C40.0745 30.873 40.4995 29.798 40.4995 28.498C40.4995 27.198 40.0745 26.123 39.2245 25.273C38.3745 24.423 37.2995 23.998 35.9995 23.998C34.6995 23.998 33.6245 24.423 32.7745 25.273C31.9245 26.123 31.4995 27.198 31.4995 28.498C31.4995 29.798 31.9245 30.873 32.7745 31.723C33.6245 32.573 34.6995 32.998 35.9995 32.998Z" fill="#1C1B1F"/>
</g>
</svg>
