<svg width="84" height="82" viewBox="0 0 84 82" fill="none" xmlns="http://www.w3.org/2000/svg">
<g id="Group 126">
<path id="Vector 618" d="M25.6202 63.3476L28.707 60.998C38.5975 62.3295 57.1174 66.2006 57.5739 66.2006C58.1445 66.2006 58.7151 69.0536 59.2857 69.6242C61.5345 71.873 65.5623 72.4772 70.6977 73.6184C75.8331 74.7596 79.8274 73.6184 84.3922 75.3302C88.044 76.6997 89.7614 88.096 90.332 89.998H-6.33352C-6.3343 83.9564 -7.71777 78.5901 -0.0569015 74.7596C2.22551 73.6184 8.31953 73.0814 11.7904 73.0814C15.4154 73.0814 24.1429 70.4643 25.6202 66.7712V63.3476Z" fill="#261E11"/>
<path id="Vector 617" d="M25.0494 28.5422C27.3318 26.7162 33.9889 26.2598 37.0321 26.2598L37.6027 34.2482L27.9024 61.6371C27.446 59.3547 25.8102 58.7841 25.0494 58.7841C23.68 60.1535 21.4356 60.1155 20.4846 59.9253C20.865 59.9253 21.9682 59.5829 23.3376 58.2135C25.0494 56.5017 21.6258 54.7899 21.6258 52.5074C21.6258 51.0514 22.8352 49.2568 23.8075 48.1072C22.8725 48.8705 21.6557 49.0838 21.0552 49.0838C22.8811 48.1709 22.1964 46.421 21.6258 45.6602C20.2564 46.5732 18.4412 46.0406 18.251 45.6602C20.5334 44.519 19.3434 41.589 19.3434 37.5948C19.3434 33.6006 22.1964 30.8246 25.0494 28.5422Z" fill="#51462D"/>
<path id="Vector 614" d="M27.3317 8.57046L22.1963 17.1295C23.9081 17.8903 28.0164 19.6401 30.7553 20.5531C34.1789 21.6943 42.738 23.9767 50.7264 24.5473C57.1171 25.0038 62.5188 23.2159 64.4208 22.2649C61.758 16.5589 56.09 4.69036 54.7206 2.86444C53.3511 1.03851 51.8676 0.582031 51.297 0.582031H45.0204C43.8792 0.582031 41.5968 1.72323 39.3143 3.43504C37.4884 4.80448 30.5651 7.42925 27.3317 8.57046Z" fill="#3C321F"/>
<path id="Vector 615" d="M18.7714 16.5592C23.7927 16.5592 32.656 19.9828 36.46 21.6946C39.8835 23.1258 49.5841 24.5476 53.5783 24.5476C57.5725 24.5476 62.1373 22.8358 64.4197 22.2652C66.7021 21.6946 72.4081 18.8416 74.12 17.7004C75.8318 16.5592 78.6848 15.418 79.826 15.418C80.9672 15.418 82.679 15.418 83.8202 17.1298C84.9614 18.8416 83.8202 21.124 82.1084 23.4064C80.3966 25.6888 75.2612 29.683 71.8375 31.9654C69.0987 33.7913 64.6099 36.1498 62.7079 37.1008V34.8184C62.7079 33.9055 63.8491 32.536 64.4197 31.9654L61.5667 27.4006C58.1431 27.5908 50.7253 27.9712 48.4429 27.9712C45.5899 27.9712 35.8896 26.83 31.8954 27.4006C27.9012 27.9712 23.907 30.2536 21.6246 32.536C19.3422 34.8184 20.4834 39.9538 21.054 41.6657C21.5105 43.0351 20.8638 44.5187 20.4834 45.0893C19.9127 45.0893 17.5161 44.6328 12.495 42.8069C6.21853 40.5244 1.08273 34.8184 0.512127 31.9654C-0.058475 29.1124 -0.0584752 25.6888 3.36514 22.2652C6.78875 18.8416 12.4948 16.5592 18.7714 16.5592Z" fill="#53482F"/>
<g id="Group 127">
<mask id="mask0_656_3060" style="mask-type:alpha" maskUnits="userSpaceOnUse" x="23" y="27" width="42" height="56">
<path id="Vector 616" d="M34.7484 33.1049C36.5743 31.279 36.9762 28.3053 37.1664 27.1641L61.5666 27.3989L64.4196 31.9637C63.3049 34.8167 63.6864 41.0106 62.7078 43.9463L60.4254 50.7936C59.136 54.6617 60.5547 58.9703 57.0018 61.635L57.5724 70.7646L56.4312 71.3352C54.1488 73.1612 53.5782 75.5196 53.5782 76.4706V82.7474H44.4485L43.8779 75.9C42.7367 74.7588 43.3073 75.3294 38.1719 74.1882C34.0636 73.2753 29.6129 68.8626 27.9011 66.7704C28.0913 61.8252 28.4717 51.5924 28.4717 50.223C28.4717 48.5112 25.6187 45.0875 25.0481 44.5169C24.4775 43.9463 23.5187 38.3237 23.3363 36.5285C23.1797 34.9865 23.9188 32.8237 25.0481 31.9637C27.4979 30.7891 29.9145 30.7891 31.3248 33.1049C30.8683 34.4743 28.4717 34.4363 27.3305 34.2461C27.7109 34.4363 28.9282 34.8167 30.7542 34.8167C32.5801 34.8167 34.5582 31.7735 35.319 30.2519L34.7484 33.1049Z" fill="#888888"/>
</mask>
<g mask="url(#mask0_656_3060)">
<path id="Vector 623" d="M34.7484 33.1049C36.5743 31.279 36.9762 28.3053 37.1664 27.1641L61.5666 27.3989L64.4196 31.9637C63.3049 34.8167 63.6864 41.0106 62.7078 43.9463L60.4254 50.7936C59.136 54.6617 60.5547 58.9703 57.0018 61.635L57.5724 70.7646L56.4312 71.3352C54.1488 73.1612 53.5782 75.5196 53.5782 76.4706V82.7474H44.4485L43.8779 75.9C42.7367 74.7588 43.3073 75.3294 38.1719 74.1882C34.0636 73.2753 29.6129 68.8626 27.9011 66.7704C28.0913 61.8252 28.4717 51.5924 28.4717 50.223C28.4717 48.5112 25.6187 45.0875 25.0481 44.5169C24.4775 43.9463 23.5187 38.3237 23.3363 36.5285C23.1797 34.9865 23.9188 32.8237 25.0481 31.9637C27.4979 30.7891 29.9145 30.7891 31.3248 33.1049C30.8683 34.4743 28.4717 34.4363 27.3305 34.2461C27.7109 34.4363 28.9282 34.8167 30.7542 34.8167C32.5801 34.8167 34.5582 31.7735 35.319 30.2519L34.7484 33.1049Z" fill="#BC9E65"/>
<path id="Vector 622" d="M31.3249 47.9402L33.5409 56.1641C37.4241 61.018 43.9645 62.7758 50.1547 62.7758C54.0826 62.7758 55.9958 61.6346 57.7076 61.6346L58.1432 78.1821L45.0193 80.4645L27.9013 71.3348L27.222 62.7758L27.4993 52.5391C27.1677 51.047 25.3538 46.9948 24.2889 45.6767C24.1305 45.5503 23.9911 45.4209 23.8743 45.2891C23.9915 45.3477 24.1321 45.4825 24.2889 45.6767C25.9056 46.9666 29.5009 47.9402 31.3249 47.9402Z" fill="url(#paint0_linear_656_3060)"/>
</g>
</g>
</g>
<defs>
<linearGradient id="paint0_linear_656_3060" x1="27.4993" y1="47.7057" x2="55.2909" y2="69.4557" gradientUnits="userSpaceOnUse">
<stop stop-color="#51462D"/>
<stop offset="1" stop-color="#706B5C" stop-opacity="0"/>
</linearGradient>
</defs>
</svg>
