<svg width="48" height="47" viewBox="0 0 48 47" fill="none" xmlns="http://www.w3.org/2000/svg">
<rect width="46.4001" height="46.4001" transform="translate(0.799805 0.599609)" fill="#675F57"/>
<path d="M16.1387 34.2079L17.6204 33.0801C22.3678 33.7192 31.2574 35.5773 31.4765 35.5773C31.7504 35.5773 32.0243 36.9468 32.2982 37.2206C33.3776 38.3001 35.311 38.5901 37.776 39.1379C40.241 39.6857 42.1582 39.1379 44.3493 39.9595C46.1022 40.6169 46.9266 46.0871 47.2005 47.0001H0.800886C0.800512 44.1001 0.136447 41.5243 3.81367 39.6857C4.90923 39.1379 7.83437 38.8801 9.50037 38.8801C11.2404 38.8801 15.4296 37.6239 16.1387 35.8512V34.2079Z" fill="#261E11"/>
<path d="M15.8639 17.4999C16.9594 16.6234 20.1548 16.4043 21.6155 16.4043L21.8894 20.2388L17.2333 33.3855C17.0142 32.2899 16.229 32.016 15.8639 32.016C15.2065 32.6733 14.1292 32.6551 13.6727 32.5638C13.8553 32.5638 14.3848 32.3994 15.0422 31.7421C15.8639 30.9204 14.2205 30.0988 14.2205 29.0032C14.2205 28.3043 14.801 27.4429 15.2677 26.8911C14.8189 27.2575 14.2349 27.3599 13.9466 27.3599C14.8231 26.9217 14.4944 26.0817 14.2205 25.7165C13.5632 26.1548 12.6919 25.8991 12.6006 25.7165C13.6961 25.1688 13.125 23.7623 13.125 21.8451C13.125 19.9279 14.4944 18.5954 15.8639 17.4999Z" fill="#51462D"/>
<path d="M16.9601 7.91453L14.4951 12.0229C15.3168 12.3881 17.2888 13.228 18.6035 13.6662C20.2468 14.214 24.3551 15.3096 28.1896 15.5834C31.2572 15.8026 33.85 14.9444 34.7629 14.4879C33.4848 11.749 30.7642 6.05208 30.1068 5.17564C29.4495 4.29919 28.7374 4.08008 28.4635 4.08008H25.4507C24.9029 4.08008 23.8074 4.62786 22.7118 5.44953C21.8354 6.10686 18.5122 7.36675 16.9601 7.91453Z" fill="#3C321F"/>
<path d="M12.8514 11.749C15.2616 11.749 19.5161 13.3923 21.342 14.214C22.9852 14.9009 27.6416 15.5834 29.5588 15.5834C31.476 15.5834 33.6671 14.7617 34.7627 14.4878C35.8582 14.214 38.5971 12.8445 39.4188 12.2967C40.2405 11.749 41.6099 11.2012 42.1577 11.2012C42.7055 11.2012 43.5271 11.2012 44.0749 12.0228C44.6227 12.8445 44.0749 13.9401 43.2533 15.0356C42.4316 16.1312 39.9666 18.0484 38.3232 19.144C37.0086 20.0204 34.854 21.1525 33.941 21.609V20.5134C33.941 20.0752 34.4888 19.4179 34.7627 19.144L33.3932 16.9529C31.7499 17.0441 28.1893 17.2267 27.0938 17.2267C25.7243 17.2267 21.0682 16.679 19.151 16.9529C17.2337 17.2267 15.3165 18.3223 14.221 19.4179C13.1254 20.5134 13.6732 22.9784 13.9471 23.8001C14.1662 24.4574 13.8558 25.1695 13.6732 25.4434C13.3993 25.4434 12.2489 25.2243 9.83873 24.3479C6.82604 23.2523 4.36084 20.5134 4.08695 19.144C3.81306 17.7745 3.81306 16.1312 5.4564 14.4878C7.09974 12.8445 9.83863 11.749 12.8514 11.749Z" fill="#53482F"/>
<mask id="mask0_946_30280" style="mask-type:alpha" maskUnits="userSpaceOnUse" x="15" y="16" width="20" height="28">
<path d="M20.521 19.6915C21.3975 18.815 21.5904 17.3876 21.6817 16.8398L33.3938 16.9526L34.7633 19.1437C34.2282 20.5131 34.4113 23.4862 33.9416 24.8954L32.846 28.182C32.2271 30.0387 32.9081 32.1069 31.2027 33.3859L31.4766 37.7682L30.9288 38.0421C29.8332 38.9185 29.5594 40.0506 29.5594 40.5071V43.5199H25.1771L24.9032 40.2332C24.3555 39.6854 24.6293 39.9593 22.1643 39.4115C20.1923 38.9733 18.056 36.8552 17.2344 35.8509C17.3256 33.4772 17.5082 28.5655 17.5082 27.9081C17.5082 27.0865 16.1388 25.4431 15.8649 25.1692C15.591 24.8954 15.1308 22.1965 15.0432 21.3348C14.968 20.5946 15.3228 19.5565 15.8649 19.1437C17.0408 18.5798 18.2008 18.5798 18.8777 19.6915C18.6586 20.3488 17.5082 20.3305 16.9605 20.2392C17.1431 20.3305 17.7274 20.5131 18.6038 20.5131C19.4802 20.5131 20.4297 19.0524 20.7949 18.322L20.521 19.6915Z" fill="#888888"/>
</mask>
<g mask="url(#mask0_946_30280)">
<path d="M20.521 19.6915C21.3975 18.815 21.5904 17.3876 21.6817 16.8398L33.3938 16.9526L34.7633 19.1437C34.2282 20.5131 34.4113 23.4862 33.9416 24.8954L32.846 28.182C32.2271 30.0387 32.9081 32.1069 31.2027 33.3859L31.4766 37.7682L30.9288 38.0421C29.8332 38.9185 29.5594 40.0506 29.5594 40.5071V43.5199H25.1771L24.9032 40.2332C24.3555 39.6854 24.6293 39.9593 22.1643 39.4115C20.1923 38.9733 18.056 36.8552 17.2344 35.8509C17.3256 33.4772 17.5082 28.5655 17.5082 27.9081C17.5082 27.0865 16.1388 25.4431 15.8649 25.1692C15.591 24.8954 15.1308 22.1965 15.0432 21.3348C14.968 20.5946 15.3228 19.5565 15.8649 19.1437C17.0408 18.5798 18.2008 18.5798 18.8777 19.6915C18.6586 20.3488 17.5082 20.3305 16.9605 20.2392C17.1431 20.3305 17.7274 20.5131 18.6038 20.5131C19.4802 20.5131 20.4297 19.0524 20.7949 18.322L20.521 19.6915Z" fill="#BC9E65"/>
<path d="M18.8781 26.8116L19.9418 30.7591C21.8057 33.089 24.9451 33.9327 27.9164 33.9327C29.8018 33.9327 30.7201 33.3849 31.5418 33.3849L31.7509 41.3277L25.4514 42.4233L17.2347 38.0411L16.9087 33.9327L17.0418 29.0191C16.8826 28.3029 16.0119 26.3578 15.5008 25.7251C15.4248 25.6645 15.3579 25.6023 15.3018 25.5391C15.358 25.5672 15.4255 25.6319 15.5008 25.7251C16.2768 26.3443 18.0026 26.8116 18.8781 26.8116Z" fill="url(#paint0_linear_946_30280)"/>
</g>
<defs>
<linearGradient id="paint0_linear_946_30280" x1="17.0418" y1="26.6991" x2="30.3818" y2="37.1391" gradientUnits="userSpaceOnUse">
<stop stop-color="#51462D"/>
<stop offset="1" stop-color="#706B5C" stop-opacity="0"/>
</linearGradient>
</defs>
</svg>
