<svg width="60" height="52" viewBox="0 0 60 52" fill="none" xmlns="http://www.w3.org/2000/svg">
<g clip-path="url(#clip0_1367_67180)">
<path d="M50.5906 18.4092C49.8532 18.4228 49.1276 18.5937 48.4635 18.9101C48.1701 17.7636 47.4996 16.7454 46.5568 16.015C45.614 15.2845 44.4523 14.8831 43.2534 14.8734C41.925 14.8772 40.6461 15.3712 39.6685 16.2582C38.6896 15.3732 37.4115 14.8794 36.0835 14.8734C35.4711 14.8799 34.8646 14.9916 34.2911 15.2034V7.80176C34.2911 6.39513 33.7245 5.04611 32.716 4.05147C31.7076 3.05683 30.3398 2.49805 28.9136 2.49805C27.4875 2.49805 26.1197 3.05683 25.1112 4.05147C24.1028 5.04611 23.5362 6.39513 23.5362 7.80176V28.6866L22.3412 27.4727L21.9111 27.1073C20.9022 26.2111 19.5833 25.7306 18.226 25.7645C16.8687 25.7984 15.5763 26.3442 14.6147 27.2896C13.6531 28.235 13.0956 29.508 13.0568 30.8466C13.0181 32.1852 13.5012 33.4874 14.4066 34.4854V34.5443L29.0809 48.8525L29.1945 48.9056L29.2482 49.0175C31.8293 50.9428 34.9745 51.9892 38.2106 51.9994H41.2936C43.2218 52.0033 45.1318 51.6316 46.9139 50.9056C48.6961 50.1796 50.3154 49.1137 51.6788 47.769C53.0422 46.4242 54.123 44.8272 54.859 43.0694C55.5951 41.3117 55.972 39.4279 55.968 37.5262V23.7129C55.9602 22.3087 55.3911 20.9641 54.3843 19.9712C53.3776 18.9782 52.0144 18.4169 50.5906 18.4092ZM52.3831 37.5262C52.3974 38.9664 52.1204 40.3951 51.5682 41.7284C51.016 43.0618 50.1997 44.2732 49.1671 45.2917C48.1345 46.3102 46.9063 47.1153 45.5543 47.6599C44.2024 48.2046 42.7539 48.4778 41.2936 48.4636H38.2405C35.7739 48.4543 33.3803 47.6376 31.4351 46.1418L16.922 31.9985C16.7366 31.8534 16.5869 31.6688 16.4839 31.4586C16.381 31.2484 16.3275 31.018 16.3275 30.7845C16.3275 30.5511 16.381 30.3207 16.4839 30.1105C16.5869 29.9003 16.7366 29.7157 16.922 29.5706C17.0684 29.3857 17.2556 29.2361 17.4694 29.1332C17.6832 29.0303 17.918 28.9769 18.1558 28.9769C18.3937 28.9769 18.6285 29.0303 18.8422 29.1332C19.056 29.2361 19.2432 29.3857 19.3896 29.5706L27.1212 37.1961V7.80176C27.1212 7.33289 27.31 6.88321 27.6462 6.55167C27.9823 6.22012 28.4383 6.03386 28.9136 6.03386C29.389 6.03386 29.845 6.22012 30.1811 6.55167C30.5173 6.88321 30.7061 7.33289 30.7061 7.80176V27.2487H34.2911V20.1771C34.2911 19.7082 34.4799 19.2586 34.8161 18.927C35.1522 18.5955 35.6081 18.4092 36.0835 18.4092C36.5589 18.4092 37.0148 18.5955 37.351 18.927C37.6872 19.2586 37.876 19.7082 37.876 20.1771V27.2487H41.4609V20.1771C41.4609 19.7082 41.6498 19.2586 41.9859 18.927C42.3221 18.5955 42.778 18.4092 43.2534 18.4092C43.7288 18.4092 44.1847 18.5955 44.5209 18.927C44.857 19.2586 45.0459 19.7082 45.0459 20.1771V27.2487H48.7981V23.7129C48.7981 23.244 48.987 22.7944 49.3231 22.4628C49.6593 22.1313 50.1152 21.945 50.5906 21.945C51.066 21.945 51.5219 22.1313 51.8581 22.4628C52.1942 22.7944 52.3831 23.244 52.3831 23.7129V37.5262Z" fill="white"/>
<path d="M59.6074 5.09762L54.8275 0.383209C54.5727 0.148997 54.2356 0.0214896 53.8873 0.0275503C53.539 0.0336111 53.2067 0.172766 52.9604 0.4157C52.7141 0.658633 52.573 0.986377 52.5669 1.32988C52.5607 1.67339 52.69 2.00584 52.9275 2.25719L55.4131 4.71458H43.6783C43.3218 4.71458 42.9799 4.85427 42.7277 5.10293C42.4756 5.35159 42.334 5.68885 42.334 6.04051C42.334 6.39217 42.4756 6.72942 42.7277 6.97808C42.9799 7.22674 43.3218 7.36644 43.6783 7.36644H55.4131L52.9335 9.81204C52.8014 9.93343 52.6954 10.0798 52.622 10.2425C52.5485 10.4051 52.509 10.5807 52.5058 10.7587C52.5026 10.9367 52.5358 11.1136 52.6034 11.2787C52.671 11.4438 52.7717 11.5938 52.8993 11.7197C53.027 11.8456 53.1791 11.9448 53.3465 12.0115C53.5139 12.0782 53.6932 12.111 53.8737 12.1078C54.0542 12.1047 54.2322 12.0657 54.3971 11.9932C54.562 11.9208 54.7104 11.8163 54.8335 11.686L59.6134 6.9716C59.8644 6.72221 60.0047 6.38477 60.0036 6.03339C60.0025 5.68202 59.86 5.34545 59.6074 5.09762Z" fill="white"/>
<path d="M4.58961 7.36051H16.3243C16.6809 7.36051 17.0228 7.22081 17.2749 6.97215C17.527 6.72349 17.6687 6.38624 17.6687 6.03458C17.6687 5.68292 17.527 5.34567 17.2749 5.09701C17.0228 4.84835 16.6809 4.70865 16.3243 4.70865H4.58961L7.0692 2.26305C7.30666 2.0117 7.43594 1.67925 7.4298 1.33574C7.42365 0.992236 7.28256 0.664492 7.03626 0.421559C6.78995 0.178626 6.45765 0.0394705 6.10937 0.0334097C5.76109 0.0273489 5.42402 0.154856 5.16918 0.389068L0.389254 5.10348C0.137501 5.3521 -0.00390625 5.6891 -0.00390625 6.04047C-0.00390625 6.39185 0.137501 6.72885 0.389254 6.97746L5.16918 11.6919C5.42402 11.9261 5.76109 12.0536 6.10937 12.0475C6.45765 12.0415 6.78995 11.9023 7.03626 11.6594C7.28256 11.4165 7.42365 11.0887 7.4298 10.7452C7.43594 10.4017 7.30666 10.0693 7.0692 9.8179L4.58961 7.36051Z" fill="white"/>
</g>
<defs>
<clipPath id="clip0_1367_67180">
<rect width="60" height="52" fill="white"/>
</clipPath>
</defs>
</svg>
