<svg width="145" height="16" viewBox="0 0 145 16" fill="none" xmlns="http://www.w3.org/2000/svg">
<path fill-rule="evenodd" clip-rule="evenodd" d="M74.2017 2.67854L71.9937 13.0395H80.0481L80.4817 11.0081H74.5505L76.3252 2.67854H74.2017Z" fill="url(#paint0_linear_484_130358)"/>
<path fill-rule="evenodd" clip-rule="evenodd" d="M83.6071 2.67854L81.3991 13.0395H89.4535L89.8872 11.0081H83.956L85.2973 4.71H91.2282L91.6618 2.67854H83.6071Z" fill="url(#paint1_linear_484_130358)"/>
<path fill-rule="evenodd" clip-rule="evenodd" d="M90.1696 9.13166L90.6032 7.1002H85.1172L84.6836 9.13166H90.1696Z" fill="url(#paint2_linear_484_130358)"/>
<path fill-rule="evenodd" clip-rule="evenodd" d="M101.673 7.1002H100.731L102.348 6.1631L102.288 5.92628C102.165 5.44803 101.975 5.00618 101.718 4.60249C101.461 4.20081 101.153 3.85284 100.793 3.56044C100.431 3.26604 100.019 3.04078 99.5605 2.88383C99.0971 2.71471 98.5984 2.63184 98.0674 2.63184C97.3406 2.63184 96.6263 2.7697 95.9262 3.04319L95.9246 3.04383C95.2397 3.31568 94.6138 3.68578 94.048 4.15362C93.492 4.61168 93.0133 5.15606 92.6121 5.7849C92.2076 6.40839 91.9277 7.07759 91.7741 7.79105C91.6205 8.50427 91.6077 9.18834 91.7424 9.83947L91.7431 9.84267L91.7438 9.84585C91.8887 10.4812 92.1523 11.0448 92.537 11.5313L92.5393 11.5341C92.9242 12.0097 93.4094 12.3864 93.9891 12.6651L93.9912 12.6662C94.5895 12.9484 95.2549 13.0862 95.9815 13.0862C96.9496 13.0862 97.8734 12.8491 98.7489 12.3786C99.626 11.9128 100.39 11.2951 101.038 10.5274L101.209 10.3253L101.673 7.1002ZM99.6425 9.13166C99.4404 9.38972 99.2131 9.63182 98.9601 9.85794C98.6852 10.0934 98.3964 10.2989 98.0936 10.4748C97.8044 10.6386 97.501 10.7687 97.183 10.8653C96.8784 10.9507 96.5819 10.9925 96.2928 10.9925C95.8585 10.9925 95.477 10.9078 95.142 10.7448C94.7979 10.5774 94.5203 10.3575 94.3032 10.0861C94.0868 9.81556 93.9358 9.49776 93.8524 9.12711C93.7701 8.76105 93.7684 8.36596 93.854 7.93793C93.9389 7.51345 94.1038 7.11114 94.3514 6.7296C94.614 6.34093 94.9248 5.99617 95.2843 5.69467C95.6531 5.394 96.0549 5.15698 96.4905 4.98272C96.9215 4.81032 97.3531 4.72557 97.7872 4.72557C98.4278 4.72557 98.9556 4.92712 99.3904 5.32576L99.3931 5.32822C99.8389 5.72761 100.139 6.23918 100.291 6.87533L100.345 7.1002H96.1406L95.7069 9.13166H99.6425Z" fill="url(#paint3_linear_484_130358)"/>
<path fill-rule="evenodd" clip-rule="evenodd" d="M104.242 2.67854L102.034 13.0395H110.089L110.522 11.0081H104.591L105.932 4.71H111.863L112.297 2.67854H104.242Z" fill="url(#paint4_linear_484_130358)"/>
<path fill-rule="evenodd" clip-rule="evenodd" d="M110.805 9.13166L111.238 7.1002H105.752L105.319 9.13166H110.805Z" fill="url(#paint5_linear_484_130358)"/>
<path fill-rule="evenodd" clip-rule="evenodd" d="M116.227 2.67854L119.735 9.90819L121.274 2.67854H123.429L121.221 13.0395H118.783L115.168 5.76573L113.625 13.0395H111.501L113.709 2.67854H116.227Z" fill="url(#paint6_linear_484_130358)"/>
<path fill-rule="evenodd" clip-rule="evenodd" d="M124.847 2.67854L122.639 13.0395H127.132C127.789 13.0395 128.452 12.9058 129.118 12.6438C129.792 12.3828 130.416 12.024 130.991 11.5685C131.566 11.1128 132.065 10.581 132.488 9.97416L132.489 9.97196C132.917 9.34712 133.209 8.67536 133.364 7.95816C133.517 7.24472 133.525 6.56433 133.379 5.92158C133.245 5.28613 132.986 4.72219 132.602 4.23539C132.226 3.74567 131.738 3.36698 131.145 3.09804C130.557 2.81583 129.897 2.67854 129.172 2.67854H124.847ZM129.996 5.00442C130.337 5.17064 130.614 5.39406 130.831 5.67462L130.833 5.67665L130.834 5.67866C131.05 5.94784 131.201 6.2699 131.285 6.65159L131.286 6.65615L131.287 6.66068C131.378 7.02407 131.384 7.41603 131.299 7.84104C131.216 8.25081 131.043 8.64621 130.775 9.02839C130.503 9.41802 130.182 9.75824 129.812 10.05C129.442 10.3423 129.044 10.5756 128.617 10.7507C128.194 10.9138 127.788 10.9925 127.397 10.9925H125.196L126.522 4.74114H128.876C129.296 4.74114 129.664 4.82943 129.986 4.99962L129.991 5.0021L129.996 5.00442Z" fill="url(#paint7_linear_484_130358)"/>
<path fill-rule="evenodd" clip-rule="evenodd" d="M138.22 4.71H143.992L144.426 2.67854H138.127C137.741 2.67854 137.362 2.75482 136.994 2.90469C136.627 3.05367 136.29 3.265 135.985 3.53632C135.677 3.79891 135.412 4.11598 135.189 4.48442L135.187 4.48752L135.185 4.49066C134.97 4.86473 134.818 5.27586 134.729 5.72168C134.637 6.13502 134.63 6.53888 134.713 6.92961L134.714 6.93161C134.795 7.3041 134.942 7.64118 135.156 7.93872L135.158 7.94128L135.16 7.94379C135.378 8.23476 135.657 8.46377 135.99 8.63052L135.994 8.63247C136.342 8.80071 136.723 8.88255 137.131 8.88255H137.392L137.81 6.92473L137.493 6.85802C137.15 6.7859 136.978 6.66032 136.895 6.52777C136.814 6.38114 136.783 6.17029 136.854 5.86028L136.855 5.85676L136.855 5.85322C136.926 5.50877 137.077 5.23869 137.303 5.02883L137.304 5.02852C137.524 4.82378 137.819 4.71 138.22 4.71Z" fill="url(#paint8_linear_484_130358)"/>
<path d="M139.982 8.869L140.466 6.93161C141.758 6.67329 142.619 7.5774 142.888 8.06175C143.533 9.67624 143.049 10.6449 142.242 11.7751C141.596 12.6792 140.036 13.0128 139.336 13.0667H133.364L133.848 10.9678H139.498C139.874 11.0216 140.692 10.9033 140.951 9.99914C141.209 9.09502 140.412 8.869 139.982 8.869Z" fill="url(#paint9_linear_484_130358)"/>
<path fill-rule="evenodd" clip-rule="evenodd" d="M2.25953 2.66797L0 13.2706H2.17305L3.98907 4.74681H8.19802C8.32432 4.74681 8.40524 4.78022 8.46442 4.82954L8.47092 4.83496L8.47769 4.84004C8.55292 4.89647 8.6129 4.97324 8.65591 5.08079L8.65936 5.0894L8.66328 5.09781C8.71829 5.2157 8.75174 5.34926 8.76023 5.50217L8.7608 5.51234L8.76199 5.52245C8.77873 5.66483 8.77014 5.79979 8.73773 5.92947L8.73582 5.9371L8.73428 5.94481C8.70869 6.07276 8.66013 6.21711 8.58408 6.37875L8.58061 6.38611L8.57752 6.39364C8.51658 6.54165 8.43417 6.67618 8.3295 6.79831C8.22708 6.91782 8.10844 7.01523 7.97233 7.0918C7.85363 7.15858 7.72386 7.19276 7.57675 7.19276H5.68459L5.24085 9.27159H7.46524C7.86755 9.27159 8.26036 9.17978 8.64092 9.00137C9.01285 8.827 9.35434 8.59506 9.66503 8.30734L9.6674 8.30514L9.66973 8.3029C9.97835 8.00567 10.2411 7.66869 10.4578 7.29296C10.6869 6.9142 10.8489 6.51553 10.9418 6.09776C11.045 5.63896 11.0647 5.19829 10.9936 4.77933C10.9346 4.37072 10.8042 4.00629 10.5942 3.69512C10.3961 3.3756 10.1335 3.12472 9.80855 2.94875C9.4784 2.75928 9.10858 2.66797 8.70778 2.66797H2.25953Z" fill="url(#paint10_linear_484_130358)"/>
<path fill-rule="evenodd" clip-rule="evenodd" d="M13.0044 2.66797L10.7449 13.2706H12.9179L15.1775 2.66797H13.0044Z" fill="url(#paint11_linear_484_130358)"/>
<path fill-rule="evenodd" clip-rule="evenodd" d="M31.0353 2.66797L34.6245 10.0662L36.2002 2.66797H38.4052L36.1456 13.2706H33.6504L29.9511 5.82716L28.372 13.2706H26.1987L28.4583 2.66797H31.0353Z" fill="url(#paint12_linear_484_130358)"/>
<path fill-rule="evenodd" clip-rule="evenodd" d="M39.8406 2.66797L37.5811 13.2706H45.8234L46.2671 11.1918H40.1976L41.5702 4.74681H47.6394L48.0831 2.66797H39.8406Z" fill="url(#paint13_linear_484_130358)"/>
<path fill-rule="evenodd" clip-rule="evenodd" d="M46.5562 9.27159L46.9999 7.19276H41.3859L40.9422 9.27159H46.5562Z" fill="url(#paint14_linear_484_130358)"/>
<path fill-rule="evenodd" clip-rule="evenodd" d="M49.5121 2.66797L47.2526 13.2706H55.4949L55.9386 11.1918H49.8691L51.2417 4.74681H57.3109L57.7546 2.66797H49.5121Z" fill="url(#paint15_linear_484_130358)"/>
<path fill-rule="evenodd" clip-rule="evenodd" d="M56.2277 9.27159L56.6714 7.19276H51.0574L50.6137 9.27159H56.2277Z" fill="url(#paint16_linear_484_130358)"/>
<path fill-rule="evenodd" clip-rule="evenodd" d="M62.2739 7.19276L64.0791 13.2706H66.3918L65.1871 9.16752C65.4179 9.09875 65.6421 9.0018 65.8595 8.87756L65.8627 8.87571C66.1982 8.679 66.4991 8.43607 66.7647 8.14783C67.0375 7.86321 67.2709 7.54983 67.4645 7.20814L67.4668 7.2041C67.6617 6.8485 67.8008 6.47896 67.8822 6.09608C67.985 5.63785 68.0047 5.19773 67.9336 4.77925C67.8746 4.37067 67.7442 4.00627 67.5342 3.69512C67.3361 3.3756 67.0735 3.12471 66.7485 2.94874C66.4184 2.75928 66.0486 2.66797 65.6478 2.66797H59.1995L56.94 13.2706H59.1131L60.9291 4.74681H65.138C65.2643 4.74681 65.3453 4.78022 65.4044 4.82954L65.4109 4.83496L65.4177 4.84004C65.4929 4.89648 65.5529 4.97324 65.5959 5.08079L65.5994 5.0894L65.6033 5.09781C65.6583 5.2157 65.6918 5.34926 65.7002 5.50217L65.7008 5.51234L65.702 5.52245C65.7188 5.66482 65.7102 5.79978 65.6777 5.92947L65.6758 5.9371L65.6743 5.94481C65.6487 6.07277 65.6001 6.21711 65.5241 6.37875L65.5206 6.38611L65.5175 6.39364C65.4566 6.54165 65.3742 6.67618 65.2695 6.79831C65.1671 6.91782 65.0484 7.01523 64.9123 7.0918C64.7936 7.15858 64.6639 7.19276 64.5168 7.19276H62.2739Z" fill="url(#paint17_linear_484_130358)"/>
<g filter="url(#filter0_d_484_130358)">
<path fill-rule="evenodd" clip-rule="evenodd" d="M26.5007 9.80678C26.5369 9.7003 26.6419 9.63116 26.7541 9.64435L27.3049 9.70914C27.4307 9.72393 27.5453 9.63582 27.5626 9.51101L27.7295 8.31259C27.7467 8.18857 27.6616 8.07354 27.5375 8.0531L26.9852 7.96212C26.8746 7.9439 26.7935 7.84964 26.7878 7.73824C26.7738 7.46334 26.7395 7.18966 26.6852 6.9196C26.6631 6.80949 26.7193 6.69747 26.8231 6.6531L27.3324 6.43537C27.4487 6.38561 27.5038 6.25237 27.4561 6.13572L26.9968 5.0116C26.9494 4.8957 26.8179 4.83847 26.7 4.8825L26.1798 5.0769C26.0746 5.1162 25.9568 5.07479 25.8959 4.98096C25.7458 4.74941 25.5772 4.52712 25.3905 4.31632C25.316 4.2322 25.3083 4.10744 25.3757 4.01737L25.7057 3.57606C25.7811 3.47527 25.7618 3.33314 25.6624 3.25593L24.6993 2.50815C24.5999 2.43094 24.4566 2.4469 24.3766 2.54409L24.0259 2.97001C23.9544 3.05681 23.8309 3.07966 23.7308 3.02825C23.4811 2.90004 23.2247 2.79192 22.9637 2.70362C22.8575 2.66767 22.7885 2.56404 22.8014 2.45306L22.8643 1.90732C22.8787 1.78296 22.7909 1.66994 22.6664 1.65236L21.4585 1.48194C21.3331 1.46425 21.2165 1.54968 21.1962 1.67404L21.1081 2.21424C21.09 2.32515 20.9944 2.40664 20.8816 2.41196C20.6041 2.42506 20.3281 2.45844 20.0557 2.51181C19.9457 2.53338 19.834 2.47798 19.7894 2.37568L19.5679 1.86769C19.5178 1.7529 19.385 1.69872 19.2682 1.74547L18.1398 2.19724C18.0223 2.24429 17.9641 2.37625 18.0091 2.49397L18.2049 3.00714C18.245 3.11214 18.2031 3.23024 18.108 3.29104C17.8774 3.43854 17.656 3.60411 17.4462 3.7875C17.3614 3.86151 17.2362 3.86924 17.1458 3.80238L16.6986 3.47143C16.5974 3.39652 16.4545 3.41579 16.3767 3.51483L15.6293 4.46709C15.5516 4.56613 15.5674 4.7087 15.6651 4.78819L16.097 5.13992C16.1841 5.21082 16.207 5.33348 16.1555 5.43315C16.0282 5.67935 15.921 5.93225 15.8334 6.18965C15.7972 6.29614 15.6922 6.3653 15.58 6.35211L15.0293 6.28734C14.9036 6.27256 14.789 6.36066 14.7716 6.48547L14.6048 7.6839C14.5876 7.80791 14.6726 7.92295 14.7967 7.94339L15.3491 8.03438C15.4597 8.05259 15.5408 8.14683 15.5465 8.25823C15.5606 8.53427 15.5952 8.80908 15.65 9.08023C15.6722 9.19039 15.6159 9.30252 15.5121 9.34691L15.0047 9.56382C14.8884 9.61358 14.8333 9.74682 14.881 9.86347L15.3403 10.9876C15.3877 11.1035 15.5192 11.1607 15.6371 11.1167L16.1569 10.9224C16.262 10.8832 16.3798 10.9245 16.4406 11.0182C16.5899 11.2481 16.7574 11.4688 16.9427 11.6782C17.0172 11.7623 17.0249 11.8871 16.9575 11.9771L16.6271 12.4189C16.5518 12.5197 16.571 12.6619 16.6704 12.7391L17.6335 13.4869C17.7329 13.5641 17.8762 13.5481 17.9562 13.4509L18.307 13.025C18.3784 12.9381 18.502 12.9153 18.6021 12.9668C18.852 13.0952 19.1086 13.2034 19.3698 13.2919C19.476 13.3278 19.545 13.4314 19.5322 13.5424L19.4687 14.0926C19.4543 14.2169 19.5421 14.3299 19.6666 14.3475L20.8745 14.5179C20.9999 14.5356 21.1165 14.4502 21.1368 14.3258L21.2256 13.7815C21.2437 13.6706 21.3393 13.5891 21.4521 13.5838C21.7285 13.5708 22.0036 13.5376 22.2749 13.4846C22.385 13.4631 22.4965 13.5186 22.5411 13.6208L22.765 14.1343C22.8151 14.2491 22.9479 14.3032 23.0647 14.2565L24.1931 13.8047C24.3107 13.7577 24.3688 13.6257 24.3238 13.508L24.1263 12.9905C24.0862 12.8855 24.1283 12.7673 24.2234 12.7066C24.4541 12.5592 24.6756 12.3937 24.8856 12.2105C24.9703 12.1365 25.0955 12.1288 25.1859 12.1957L25.6336 12.527C25.7348 12.6019 25.8777 12.5826 25.9554 12.4836L26.7029 11.5313C26.7806 11.4323 26.7647 11.2897 26.6671 11.2102L26.2357 10.8589C26.1485 10.788 26.1257 10.6653 26.1773 10.5656C26.3051 10.3186 26.4128 10.065 26.5007 9.80678ZM18.5511 11.3308C20.4173 12.7798 23.096 12.4497 24.5367 10.6142C25.9775 8.7786 25.6494 6.11392 23.7832 4.66494C21.9171 3.21597 19.2384 3.54602 17.7976 5.38158C16.3569 7.21713 16.685 9.88182 18.5511 11.3308ZM22.875 9.32366C22.1471 10.251 20.7896 10.4216 19.8405 9.68466C18.8914 8.94771 18.7284 7.59653 19.4563 6.66917C20.1842 5.7418 21.5416 5.57122 22.4908 6.30817C23.4399 7.04511 23.6029 8.39629 22.875 9.32366ZM23.9189 10.1342C22.7364 11.6408 20.5451 11.9049 19.0245 10.7242C17.5039 9.54357 17.2298 7.36515 18.4123 5.85861C19.5948 4.35207 21.7861 4.0879 23.3067 5.26858C24.8273 6.44925 25.1014 8.62767 23.9189 10.1342Z" fill="url(#paint18_angular_484_130358)"/>
</g>
<defs>
<filter id="filter0_d_484_130358" x="14.6025" y="1.47949" width="13.4593" height="13.3714" filterUnits="userSpaceOnUse" color-interpolation-filters="sRGB">
<feFlood flood-opacity="0" result="BackgroundImageFix"/>
<feColorMatrix in="SourceAlpha" type="matrix" values="0 0 0 0 0 0 0 0 0 0 0 0 0 0 0 0 0 0 127 0" result="hardAlpha"/>
<feOffset dx="0.330405" dy="0.330405"/>
<feComposite in2="hardAlpha" operator="out"/>
<feColorMatrix type="matrix" values="0 0 0 0 0.192157 0 0 0 0 0.188235 0 0 0 0 0.188235 0 0 0 1 0"/>
<feBlend mode="normal" in2="BackgroundImageFix" result="effect1_dropShadow_484_130358"/>
<feBlend mode="normal" in="SourceGraphic" in2="effect1_dropShadow_484_130358" result="shape"/>
</filter>
<linearGradient id="paint0_linear_484_130358" x1="91.7467" y1="2.63184" x2="91.7467" y2="11.2388" gradientUnits="userSpaceOnUse">
<stop stop-color="#FFFEFD"/>
<stop offset="0.510417" stop-color="#FFD15F"/>
<stop offset="1" stop-color="#FF9B25"/>
</linearGradient>
<linearGradient id="paint1_linear_484_130358" x1="91.7467" y1="2.63184" x2="91.7467" y2="11.2388" gradientUnits="userSpaceOnUse">
<stop stop-color="#FFFEFD"/>
<stop offset="0.510417" stop-color="#FFD15F"/>
<stop offset="1" stop-color="#FF9B25"/>
</linearGradient>
<linearGradient id="paint2_linear_484_130358" x1="91.7467" y1="2.63184" x2="91.7467" y2="11.2388" gradientUnits="userSpaceOnUse">
<stop stop-color="#FFFEFD"/>
<stop offset="0.510417" stop-color="#FFD15F"/>
<stop offset="1" stop-color="#FF9B25"/>
</linearGradient>
<linearGradient id="paint3_linear_484_130358" x1="91.7467" y1="2.63184" x2="91.7467" y2="11.2388" gradientUnits="userSpaceOnUse">
<stop stop-color="#FFFEFD"/>
<stop offset="0.510417" stop-color="#FFD15F"/>
<stop offset="1" stop-color="#FF9B25"/>
</linearGradient>
<linearGradient id="paint4_linear_484_130358" x1="91.7467" y1="2.63184" x2="91.7467" y2="11.2388" gradientUnits="userSpaceOnUse">
<stop stop-color="#FFFEFD"/>
<stop offset="0.510417" stop-color="#FFD15F"/>
<stop offset="1" stop-color="#FF9B25"/>
</linearGradient>
<linearGradient id="paint5_linear_484_130358" x1="91.7467" y1="2.63184" x2="91.7467" y2="11.2388" gradientUnits="userSpaceOnUse">
<stop stop-color="#FFFEFD"/>
<stop offset="0.510417" stop-color="#FFD15F"/>
<stop offset="1" stop-color="#FF9B25"/>
</linearGradient>
<linearGradient id="paint6_linear_484_130358" x1="91.7467" y1="2.63184" x2="91.7467" y2="11.2388" gradientUnits="userSpaceOnUse">
<stop stop-color="#FFFEFD"/>
<stop offset="0.510417" stop-color="#FFD15F"/>
<stop offset="1" stop-color="#FF9B25"/>
</linearGradient>
<linearGradient id="paint7_linear_484_130358" x1="91.7467" y1="2.63184" x2="91.7467" y2="11.2388" gradientUnits="userSpaceOnUse">
<stop stop-color="#FFFEFD"/>
<stop offset="0.510417" stop-color="#FFD15F"/>
<stop offset="1" stop-color="#FF9B25"/>
</linearGradient>
<linearGradient id="paint8_linear_484_130358" x1="91.7467" y1="2.63184" x2="91.7467" y2="11.2388" gradientUnits="userSpaceOnUse">
<stop stop-color="#FFFEFD"/>
<stop offset="0.510417" stop-color="#FFD15F"/>
<stop offset="1" stop-color="#FF9B25"/>
</linearGradient>
<linearGradient id="paint9_linear_484_130358" x1="91.7467" y1="2.63184" x2="91.7467" y2="11.2388" gradientUnits="userSpaceOnUse">
<stop stop-color="#FFFEFD"/>
<stop offset="0.510417" stop-color="#FFD15F"/>
<stop offset="1" stop-color="#FF9B25"/>
</linearGradient>
<linearGradient id="paint10_linear_484_130358" x1="18.5377" y1="2.66797" x2="18.5377" y2="11.397" gradientUnits="userSpaceOnUse">
<stop stop-color="#FFFEFD"/>
<stop offset="0.510417" stop-color="#FFD15F"/>
<stop offset="1" stop-color="#FF9B25"/>
</linearGradient>
<linearGradient id="paint11_linear_484_130358" x1="18.5377" y1="2.66797" x2="18.5377" y2="11.397" gradientUnits="userSpaceOnUse">
<stop stop-color="#FFFEFD"/>
<stop offset="0.510417" stop-color="#FFD15F"/>
<stop offset="1" stop-color="#FF9B25"/>
</linearGradient>
<linearGradient id="paint12_linear_484_130358" x1="18.5377" y1="2.66797" x2="18.5377" y2="11.397" gradientUnits="userSpaceOnUse">
<stop stop-color="#FFFEFD"/>
<stop offset="0.510417" stop-color="#FFD15F"/>
<stop offset="1" stop-color="#FF9B25"/>
</linearGradient>
<linearGradient id="paint13_linear_484_130358" x1="18.5377" y1="2.66797" x2="18.5377" y2="11.397" gradientUnits="userSpaceOnUse">
<stop stop-color="#FFFEFD"/>
<stop offset="0.510417" stop-color="#FFD15F"/>
<stop offset="1" stop-color="#FF9B25"/>
</linearGradient>
<linearGradient id="paint14_linear_484_130358" x1="18.5377" y1="2.66797" x2="18.5377" y2="11.397" gradientUnits="userSpaceOnUse">
<stop stop-color="#FFFEFD"/>
<stop offset="0.510417" stop-color="#FFD15F"/>
<stop offset="1" stop-color="#FF9B25"/>
</linearGradient>
<linearGradient id="paint15_linear_484_130358" x1="18.5377" y1="2.66797" x2="18.5377" y2="11.397" gradientUnits="userSpaceOnUse">
<stop stop-color="#FFFEFD"/>
<stop offset="0.510417" stop-color="#FFD15F"/>
<stop offset="1" stop-color="#FF9B25"/>
</linearGradient>
<linearGradient id="paint16_linear_484_130358" x1="18.5377" y1="2.66797" x2="18.5377" y2="11.397" gradientUnits="userSpaceOnUse">
<stop stop-color="#FFFEFD"/>
<stop offset="0.510417" stop-color="#FFD15F"/>
<stop offset="1" stop-color="#FF9B25"/>
</linearGradient>
<linearGradient id="paint17_linear_484_130358" x1="18.5377" y1="2.66797" x2="18.5377" y2="11.397" gradientUnits="userSpaceOnUse">
<stop stop-color="#FFFEFD"/>
<stop offset="0.510417" stop-color="#FFD15F"/>
<stop offset="1" stop-color="#FF9B25"/>
</linearGradient>
<radialGradient id="paint18_angular_484_130358" cx="0" cy="0" r="1" gradientUnits="userSpaceOnUse" gradientTransform="translate(21.1667 8.00004) rotate(128.133) scale(6.47597 6.5105)">
<stop offset="0.243891" stop-color="#FFFDFD"/>
<stop offset="0.386083" stop-color="#BCBCBC"/>
<stop offset="0.490181" stop-color="#747171"/>
<stop offset="0.590214" stop-color="#E7E7E7"/>
<stop offset="0.737578" stop-color="#706C6C"/>
<stop offset="0.834203" stop-color="#E7E7E7"/>
<stop offset="1" stop-color="#737373"/>
</radialGradient>
</defs>
</svg>
